<svg width="322" height="32" viewBox="0 0 322 32" fill="none" xmlns="http://www.w3.org/2000/svg">
<g clip-path="url(#clip0_2_7)">
<path d="M16.4923 21.5221C16.0962 21.5202 15.7132 21.6668 15.4167 21.9339C13.9468 23.1946 12.5055 23.8978 10.3687 23.8978C6.5073 23.8978 3.70719 20.644 3.70719 16.6104V16.5521C3.70719 12.5441 6.53598 9.31211 10.3687 9.31211C12.142 9.31448 13.8542 9.97091 15.1873 11.1595C15.4503 11.3483 15.7586 11.4616 16.0796 11.4875C16.4007 11.5134 16.7227 11.4509 17.0117 11.3067C17.3008 11.1624 17.5463 10.9416 17.7224 10.6676C17.8985 10.3935 17.9987 10.0764 18.0125 9.74936C18.0137 9.47206 17.952 9.19822 17.8319 8.9492C17.7119 8.70017 17.5369 8.4827 17.3205 8.31374C15.5637 6.93643 13.513 6 10.3973 6C4.30235 6 0 10.7769 0 16.6104V16.6687C0 22.5642 4.38481 27.2354 10.2683 27.2354C13.5273 27.2354 15.6928 26.1824 17.5966 24.4808C17.7764 24.3189 17.9207 24.1204 18.0201 23.8982C18.1196 23.676 18.1719 23.435 18.1738 23.1909C18.1617 22.7453 17.9795 22.3219 17.6656 22.0104C17.3518 21.699 16.931 21.5238 16.4923 21.5221ZM29.7041 14.9853C25.8069 14.0453 24.8855 13.342 24.8855 11.7607V11.7024C24.8855 10.3506 26.0973 9.26839 28.1732 9.26839C29.7615 9.26839 31.2601 9.79308 32.8341 10.8206C33.1116 10.996 33.4322 11.0882 33.7591 11.0866C33.977 11.089 34.1933 11.0476 34.3954 10.9647C34.5976 10.8818 34.7816 10.7591 34.9369 10.6037C35.0921 10.4482 35.2156 10.2631 35.3002 10.0589C35.3848 9.85479 35.4289 9.63565 35.4298 9.41414C35.4373 9.12618 35.3692 8.84139 35.2324 8.58907C35.0957 8.33675 34.8953 8.12601 34.6518 7.97852C32.7598 6.69182 30.5246 6.02662 28.2485 6.07287C24.2401 6.07287 21.3576 8.50321 21.3576 12.023V12.0813C21.3576 15.8635 23.7776 17.1533 28.0764 18.21C31.8266 19.0881 32.6333 19.8788 32.6333 21.3472V21.4055C32.6333 22.9286 31.2494 23.9853 29.048 23.9853C26.977 23.9843 24.9735 23.2368 23.394 21.8756C23.1425 21.6924 22.8468 21.5819 22.5385 21.5558C22.2301 21.5296 21.9206 21.5888 21.6426 21.7271C21.3647 21.8653 21.1288 22.0774 20.9599 22.3409C20.7911 22.6044 20.6956 22.9095 20.6835 23.2237C20.6822 23.4928 20.7443 23.7583 20.8647 23.9979C20.9851 24.2375 21.1602 24.4444 21.3755 24.601C23.5587 26.2783 26.2216 27.1842 28.9584 27.1808C33.1998 27.1808 36.172 24.8925 36.172 21.0521V20.9938C36.1827 17.5942 33.9706 16.0384 29.7041 14.9853ZM47.5839 14.9853C43.6903 14.0453 42.7689 13.342 42.7689 11.7607V11.7024C42.7689 10.3506 43.9807 9.26839 46.0566 9.26839C47.6413 9.26839 49.1435 9.79308 50.7175 10.8206C50.995 10.996 51.3157 11.0882 51.6425 11.0866C51.8604 11.089 52.0767 11.0476 52.2788 10.9647C52.481 10.8818 52.665 10.7591 52.8203 10.6037C52.9756 10.4482 53.0991 10.2631 53.1837 10.0589C53.2683 9.85479 53.3123 9.63565 53.3132 9.41414C53.3207 9.12618 53.2526 8.84139 53.1158 8.58907C52.9791 8.33675 52.7787 8.12601 52.5352 7.97852C50.6382 6.68823 48.3962 6.02286 46.114 6.07287C42.1056 6.07287 39.2195 8.50321 39.2195 12.023V12.0813C39.2195 15.8635 41.6431 17.1533 45.9419 18.21C49.6921 19.0881 50.4988 19.8788 50.4988 21.3472V21.4055C50.4988 22.9286 49.1149 23.9853 46.9135 23.9853C44.8438 23.9835 42.8417 23.236 41.2631 21.8756C41.0112 21.6927 40.7154 21.5825 40.4069 21.5565C40.0985 21.5304 39.7888 21.5896 39.5108 21.7277C39.2327 21.8659 38.9965 22.0778 38.8272 22.3412C38.6579 22.6045 38.5618 22.9094 38.549 23.2237C38.5485 23.4926 38.611 23.7578 38.7314 23.9973C38.8517 24.2368 39.0264 24.4437 39.241 24.601C41.4259 26.2776 44.0897 27.1834 46.8274 27.1808C51.0688 27.1808 54.0375 24.8925 54.0375 21.0521V20.9938C54.0446 17.5942 51.854 16.0384 47.5839 14.9853ZM63.94 16.1586H58.5155C58.0741 16.1791 57.6574 16.3718 57.3522 16.6965C57.0469 17.0212 56.8766 17.453 56.8766 17.9021C56.8766 18.3512 57.0469 18.783 57.3522 19.1077C57.6574 19.4325 58.0741 19.6251 58.5155 19.6456H63.94C64.3815 19.6251 64.7981 19.4325 65.1034 19.1077C65.4086 18.783 65.5789 18.3512 65.5789 17.9021C65.5789 17.453 65.4086 17.0212 65.1034 16.6965C64.7981 16.3718 64.3815 16.1791 63.94 16.1586ZM80.2818 6.36437H66.88C66.6576 6.35381 66.4355 6.3892 66.227 6.4684C66.0185 6.54759 65.828 6.66895 65.667 6.82512C65.506 6.98129 65.3778 7.16903 65.2902 7.37699C65.2027 7.58495 65.1575 7.8088 65.1575 8.035C65.1575 8.2612 65.2027 8.48505 65.2902 8.69301C65.3778 8.90097 65.506 9.08871 65.667 9.24488C65.828 9.40105 66.0185 9.52241 66.227 9.6016C66.4355 9.6808 66.6576 9.71619 66.88 9.70563H71.7811V25.246C71.7811 25.7292 71.9699 26.1925 72.3061 26.5342C72.6423 26.8759 73.0983 27.0678 73.5737 27.0678C74.0491 27.0678 74.5051 26.8759 74.8413 26.5342C75.1775 26.1925 75.3663 25.7292 75.3663 25.246V9.70563H80.2818C80.7045 9.68556 81.1033 9.50079 81.3955 9.18968C81.6876 8.87858 81.8506 8.46505 81.8506 8.035C81.8506 7.60495 81.6876 7.19142 81.3955 6.88032C81.1033 6.56921 80.7045 6.38444 80.2818 6.36437ZM94.2106 6.36437H87.0113C86.7749 6.36043 86.54 6.40486 86.3208 6.49502C86.1015 6.58518 85.9024 6.71923 85.7351 6.8892C85.5679 7.05916 85.436 7.26157 85.3473 7.48439C85.2586 7.70721 85.2148 7.94588 85.2187 8.18621V25.2496C85.2796 25.6839 85.4926 26.0812 85.8186 26.3687C86.1447 26.6562 86.5618 26.8145 86.9934 26.8145C87.4251 26.8145 87.8422 26.6562 88.1682 26.3687C88.4942 26.0812 88.7073 25.6839 88.7681 25.2496V19.7331H93.239L98.1401 26.0949C98.3271 26.3875 98.584 26.6271 98.8869 26.7915C99.1897 26.9559 99.5285 27.0397 99.8718 27.035C100.092 27.0389 100.31 26.9987 100.515 26.9167C100.719 26.8348 100.906 26.7126 101.064 26.5573C101.222 26.402 101.349 26.2166 101.436 26.0116C101.524 25.8066 101.571 25.586 101.575 25.3626C101.555 24.847 101.35 24.3568 100.998 23.9853L97.1326 19.0298C99.8431 18.1809 101.718 16.1878 101.718 12.9011V12.8428C101.739 12.0293 101.602 11.2196 101.314 10.46C101.027 9.70038 100.595 9.00573 100.044 8.41577C98.7496 7.1259 96.7741 6.36437 94.2214 6.36437H94.2106ZM98.115 13.1052C98.115 15.1857 96.5016 16.5339 93.9632 16.5339H88.7717V9.64733H93.9345C96.559 9.64733 98.115 10.8498 98.115 13.0505V13.1052ZM107.777 6.21862C107.543 6.21326 107.31 6.25564 107.093 6.34324C106.875 6.43083 106.677 6.56188 106.509 6.72865C106.342 6.89541 106.21 7.09451 106.12 7.31419C106.03 7.53386 105.984 7.76967 105.985 8.00767V25.246C106.005 25.7098 106.201 26.1478 106.531 26.4686C106.861 26.7895 107.301 26.9685 107.758 26.9685C108.214 26.9685 108.654 26.7895 108.984 26.4686C109.314 26.1478 109.51 25.7098 109.531 25.246V8.00403C109.532 7.76947 109.488 7.53695 109.4 7.31992C109.313 7.10289 109.183 6.90565 109.02 6.73962C108.857 6.57359 108.664 6.44206 108.45 6.35263C108.237 6.2632 108.008 6.21765 107.777 6.21862ZM130.246 21.5221C129.85 21.5191 129.467 21.6659 129.171 21.9339C127.697 23.1946 126.256 23.8978 124.123 23.8978C120.258 23.8978 117.458 20.644 117.458 16.6104V16.5521C117.458 12.5441 120.286 9.31211 124.123 9.31211C125.895 9.3147 127.606 9.97116 128.938 11.1595C129.246 11.3991 129.625 11.5274 130.013 11.5238C130.243 11.5287 130.472 11.4867 130.686 11.4004C130.9 11.314 131.094 11.185 131.259 11.021C131.423 10.857 131.553 10.6613 131.641 10.4454C131.73 10.2295 131.775 9.9978 131.774 9.76393C131.773 9.48692 131.711 9.21364 131.591 8.96487C131.471 8.71611 131.297 8.4984 131.082 8.32832C129.321 6.951 127.274 6.01458 124.159 6.01458C118.042 6.01458 113.761 10.7915 113.761 16.625V16.6833C113.761 22.5788 118.142 27.25 124.029 27.25C127.288 27.25 129.45 26.197 131.354 24.4954C131.534 24.3335 131.678 24.135 131.778 23.9128C131.877 23.6906 131.93 23.4496 131.931 23.2055C131.923 22.7567 131.742 22.3291 131.427 22.0144C131.112 21.6997 130.688 21.523 130.246 21.5221ZM144.946 15.3934L151.235 9.23924C151.431 9.07489 151.59 8.86863 151.7 8.63504C151.809 8.40145 151.867 8.14624 151.869 7.88743C151.872 7.66729 151.831 7.44889 151.749 7.24507C151.667 7.04126 151.546 6.85615 151.392 6.70065C151.239 6.54515 151.057 6.42239 150.856 6.33961C150.655 6.25683 150.44 6.21569 150.224 6.21862C149.944 6.21503 149.668 6.27539 149.414 6.39524C149.161 6.51509 148.938 6.69134 148.761 6.91092L139.188 16.6833V8.00403C139.168 7.54018 138.972 7.10224 138.642 6.78138C138.311 6.46052 137.872 6.28145 137.415 6.28145C136.958 6.28145 136.519 6.46052 136.189 6.78138C135.858 7.10224 135.663 7.54018 135.642 8.00403V25.2423C135.663 25.7062 135.858 26.1441 136.189 26.465C136.519 26.7858 136.958 26.9649 137.415 26.9649C137.872 26.9649 138.311 26.7858 138.642 26.465C138.972 26.1441 139.168 25.7062 139.188 25.2423V20.9938L142.476 17.7691L148.965 26.186C149.125 26.4441 149.347 26.6571 149.61 26.8054C149.872 26.9538 150.167 27.0327 150.467 27.035C150.7 27.0439 150.932 27.0048 151.149 26.9203C151.367 26.8358 151.565 26.7075 151.733 26.5431C151.9 26.3788 152.033 26.1817 152.124 25.9638C152.214 25.7459 152.261 25.5117 152.26 25.2751C152.257 24.7993 152.084 24.3408 151.772 23.9853L144.946 15.3934ZM163.518 14.9853C159.624 14.0453 158.703 13.342 158.703 11.7607V11.7024C158.703 10.3506 159.915 9.26839 161.99 9.26839C163.579 9.26839 165.077 9.79308 166.651 10.8206C166.929 10.996 167.25 11.0882 167.576 11.0866C167.794 11.089 168.011 11.0476 168.213 10.9647C168.415 10.8818 168.599 10.7591 168.754 10.6037C168.909 10.4482 169.033 10.2631 169.118 10.0589C169.202 9.85479 169.246 9.63565 169.247 9.41414C169.256 9.12724 169.189 8.84317 169.054 8.59095C168.92 8.33873 168.721 8.12739 168.48 7.97852C166.588 6.69182 164.353 6.02662 162.077 6.07287C158.068 6.07287 155.182 8.50321 155.182 12.023V12.0813C155.182 15.8635 157.606 17.1533 161.904 18.21C165.655 19.0881 166.461 19.8788 166.461 21.3472V21.4055C166.461 22.9286 165.077 23.9853 162.876 23.9853C160.806 23.9835 158.804 23.236 157.226 21.8756C156.974 21.6927 156.678 21.5825 156.369 21.5565C156.061 21.5304 155.751 21.5896 155.473 21.7277C155.195 21.8659 154.959 22.0778 154.79 22.3412C154.62 22.6045 154.524 22.9094 154.512 23.2237C154.511 23.4931 154.574 23.7586 154.695 23.9982C154.816 24.2379 154.991 24.4446 155.207 24.601C157.39 26.2783 160.053 27.1842 162.79 27.1808C167.031 27.1808 170 24.8925 170 21.0521V20.9938C169.989 17.5942 167.799 16.0384 163.529 14.9853H163.518Z" fill="white"/>
<path fill-rule="evenodd" clip-rule="evenodd" d="M211.018 29V23.9655C216.367 23.9655 220.48 18.6838 218.439 13.0624C217.697 10.993 216.027 9.32513 213.955 8.58385C208.328 6.54532 203.04 10.6841 203.04 15.9967H198C198 7.50281 206.225 0.862154 215.13 3.64197C219.026 4.84655 222.118 7.96611 223.355 11.8578C226.138 20.7841 219.521 29 211.018 29Z" fill="white"/>
<path fill-rule="evenodd" clip-rule="evenodd" d="M211.017 23.9966H206.008V18.9929H211.017V23.9966Z" fill="white"/>
<path fill-rule="evenodd" clip-rule="evenodd" d="M206.007 27.8589H202.142V23.998H206.007V27.8589Z" fill="white"/>
<path fill-rule="evenodd" clip-rule="evenodd" d="M202.145 23.9984H198.898V20.7861H202.114V23.9984H202.145Z" fill="white"/>
<path fill-rule="evenodd" clip-rule="evenodd" d="M239.312 14.8041C238.176 14.0275 236.755 13.6274 235.098 13.6274H231.5V25.0182H235.098C236.755 25.0182 238.176 24.5945 239.312 23.7708C239.927 23.3237 240.425 22.7118 240.756 21.9351C241.087 21.1585 241.277 20.2642 241.277 19.2522C241.277 18.2402 241.111 17.3459 240.756 16.5928C240.425 15.8161 239.951 15.2042 239.312 14.8041ZM233.609 15.5349H234.745C236 15.5349 237.041 15.7703 237.823 16.2645C238.699 16.7823 239.148 17.7942 239.148 19.2299C239.148 20.7125 238.699 21.7481 237.823 22.3129C237.065 22.8071 236.047 23.066 234.769 23.066H233.633V15.5349H233.609Z" fill="white"/>
<path fill-rule="evenodd" clip-rule="evenodd" d="M243.809 13.463C243.454 13.463 243.17 13.5807 242.933 13.816C242.697 14.0514 242.555 14.3338 242.555 14.6868C242.555 15.0398 242.673 15.3222 242.91 15.5811C243.147 15.8165 243.454 15.9341 243.809 15.9341C244.164 15.9341 244.448 15.8165 244.709 15.5811C244.946 15.3458 245.064 15.0398 245.064 14.6868C245.064 14.3338 244.946 14.0514 244.709 13.816C244.448 13.6042 244.141 13.463 243.809 13.463Z" fill="white"/>
<path d="M244.804 16.9688H242.768V24.9941H244.804V16.9688Z" fill="white"/>
<path fill-rule="evenodd" clip-rule="evenodd" d="M252.164 17.6515C251.548 17.1102 250.862 16.8043 250.128 16.8043C249.015 16.8043 248.068 17.1808 247.358 17.9575C246.624 18.7106 246.269 19.6755 246.269 20.8287C246.269 21.9583 246.624 22.9233 247.334 23.6999C248.044 24.453 248.991 24.8296 250.104 24.8296C250.885 24.8296 251.548 24.6178 252.116 24.1941V24.3824C252.116 25.0414 251.927 25.5591 251.595 25.9122C251.24 26.2652 250.743 26.4535 250.151 26.4535C249.204 26.4535 248.636 26.0769 247.902 25.1355L246.529 26.4535L246.577 26.5005C246.885 26.9241 247.334 27.3242 247.926 27.7008C248.518 28.0773 249.299 28.2892 250.175 28.2892C251.382 28.2892 252.353 27.9126 253.063 27.183C253.773 26.4535 254.152 25.465 254.152 24.2647V16.969H252.164V17.6515ZM251.619 22.3826C251.264 22.7827 250.814 22.9709 250.223 22.9709C249.631 22.9709 249.181 22.7827 248.85 22.3826C248.495 21.9825 248.329 21.4647 248.329 20.8057C248.329 20.1468 248.495 19.629 248.85 19.2289C249.205 18.8288 249.655 18.6406 250.223 18.6406C250.814 18.6406 251.264 18.8288 251.619 19.2289C251.974 19.629 252.14 20.1703 252.14 20.8057C252.164 21.4647 251.974 21.9825 251.619 22.3826Z" fill="white"/>
<path d="M257.919 16.9688H255.883V24.9941H257.919V16.9688Z" fill="white"/>
<path fill-rule="evenodd" clip-rule="evenodd" d="M256.924 13.463C256.569 13.463 256.285 13.5807 256.048 13.816C255.811 14.0514 255.669 14.3338 255.669 14.6868C255.669 15.0398 255.788 15.3222 256.024 15.5811C256.261 15.8165 256.569 15.9341 256.924 15.9341C257.279 15.9341 257.563 15.8165 257.823 15.5811C258.06 15.3458 258.178 15.0398 258.178 14.6868C258.178 14.3338 258.06 14.0514 257.823 13.816C257.563 13.6042 257.279 13.463 256.924 13.463Z" fill="white"/>
<path fill-rule="evenodd" clip-rule="evenodd" d="M262.367 14.8033H260.379V16.9685H259.219V18.8042H260.379V22.1226C260.379 23.1581 260.592 23.9112 260.994 24.3348C261.421 24.7585 262.154 24.9938 263.172 24.9938C263.504 24.9938 263.835 24.9938 264.167 24.9703H264.261V23.1346L263.575 23.1816C263.101 23.1816 262.77 23.0875 262.604 22.9228C262.438 22.758 262.367 22.405 262.367 21.8637V18.8277H264.261V16.992H262.367V14.8033Z" fill="white"/>
<path fill-rule="evenodd" clip-rule="evenodd" d="M273.78 13.603H275.815V24.9937H273.78V13.603Z" fill="white"/>
<path fill-rule="evenodd" clip-rule="evenodd" d="M296.291 22.1231C295.936 22.5232 295.557 22.8762 295.273 23.0645C294.989 23.2527 294.634 23.3233 294.232 23.3233C293.64 23.3233 293.143 23.1115 292.764 22.6644C292.385 22.2172 292.172 21.6524 292.172 20.9699C292.172 20.2874 292.361 19.7226 292.74 19.2754C293.119 18.8282 293.616 18.6164 294.208 18.6164C294.871 18.6164 295.557 19.0165 296.149 19.7226L297.498 18.4517C296.623 17.322 295.51 16.8043 294.184 16.8043C293.072 16.8043 292.101 17.2043 291.32 18.0045C290.539 18.8047 290.136 19.7932 290.136 20.9934C290.136 22.1937 290.539 23.2057 291.32 23.9823C292.101 24.7825 293.072 25.1826 294.184 25.1826C295.652 25.1826 296.836 24.5471 297.64 23.394L296.291 22.1231Z" fill="white"/>
<path fill-rule="evenodd" clip-rule="evenodd" d="M304.624 18.1001C304.34 17.7 303.938 17.3705 303.464 17.1352C302.991 16.8998 302.423 16.7822 301.784 16.7822C300.647 16.7822 299.724 17.2058 299.038 18.006C298.351 18.8297 298.02 19.8417 298.02 21.0184C298.02 22.2422 298.399 23.2307 299.132 24.0073C299.866 24.7604 300.86 25.1605 302.068 25.1605C303.441 25.1605 304.553 24.6192 305.406 23.5366L305.453 23.4895L304.127 22.2187C304.009 22.3599 303.82 22.5246 303.678 22.6894C303.488 22.8776 303.299 23.0188 303.086 23.113C302.778 23.2542 302.447 23.3483 302.068 23.3483C301.5 23.3483 301.05 23.1836 300.695 22.8541C300.363 22.5481 300.174 22.1481 300.127 21.6303H305.5L305.524 20.9007C305.524 20.383 305.453 19.8887 305.311 19.418C305.122 18.9238 304.908 18.5002 304.624 18.1001ZM300.197 19.982C300.292 19.6055 300.481 19.276 300.718 19.0407C301.002 18.7818 301.357 18.6406 301.783 18.6406C302.281 18.6406 302.659 18.7818 302.92 19.0642C303.156 19.3231 303.298 19.629 303.322 20.0056H300.197V19.982Z" fill="white"/>
<path fill-rule="evenodd" clip-rule="evenodd" d="M312.414 17.5809C311.798 17.0631 310.946 16.8043 309.881 16.8043C309.195 16.8043 308.579 16.9455 308.011 17.2279C307.49 17.4868 306.969 17.9339 306.638 18.5223L306.662 18.5458L307.964 19.7932C308.508 18.9459 309.1 18.64 309.881 18.64C310.307 18.64 310.662 18.7576 310.923 18.9694C311.183 19.1813 311.325 19.4637 311.325 19.8402V20.2403C310.828 20.0991 310.331 20.005 309.834 20.005C308.816 20.005 308.011 20.2403 307.395 20.711C306.78 21.1817 306.472 21.8642 306.472 22.7114C306.472 23.4646 306.733 24.0765 307.253 24.5236C307.774 24.9708 308.437 25.1826 309.218 25.1826C309.999 25.1826 310.71 24.8766 311.372 24.3353V24.9943H313.361V19.8402C313.337 18.8518 313.029 18.0987 312.414 17.5809ZM308.814 21.9348C309.051 21.7701 309.359 21.6995 309.785 21.6995C310.282 21.6995 310.803 21.7936 311.323 21.9819V22.7585C310.874 23.1586 310.282 23.3704 309.572 23.3704C309.217 23.3704 308.956 23.2998 308.767 23.1351C308.577 22.9939 308.483 22.8056 308.483 22.5467C308.483 22.2878 308.577 22.076 308.814 21.9348Z" fill="white"/>
<path fill-rule="evenodd" clip-rule="evenodd" d="M321.148 17.721C320.58 17.0856 319.798 16.7797 318.78 16.7797C317.976 16.7797 317.313 17.015 316.839 17.4622V16.9679H314.851V24.9932H316.887V20.5687C316.887 19.9568 317.029 19.4861 317.313 19.1331C317.597 18.7801 317.999 18.6154 318.52 18.6154C318.97 18.6154 319.325 18.7566 319.585 19.0625C319.846 19.3685 319.964 19.7921 319.964 20.3334V24.9697H322V20.3334C322 19.2273 321.716 18.3565 321.148 17.721Z" fill="white"/>
<path fill-rule="evenodd" clip-rule="evenodd" d="M271.225 17.5809C270.609 17.0631 269.757 16.8043 268.692 16.8043C268.005 16.8043 267.39 16.9455 266.821 17.2279C266.301 17.4868 265.78 17.9339 265.448 18.5223L265.472 18.5458L266.774 19.7932C267.319 18.9459 267.91 18.64 268.692 18.64C269.118 18.64 269.473 18.7576 269.733 18.9694C269.994 19.1813 270.136 19.4637 270.136 19.8402V20.2403C269.638 20.0991 269.141 20.005 268.644 20.005C267.626 20.005 266.821 20.2403 266.206 20.711C265.59 21.1817 265.283 21.8642 265.283 22.7114C265.283 23.4646 265.543 24.0765 266.064 24.5236C266.585 24.9708 267.248 25.1826 268.029 25.1826C268.81 25.1826 269.52 24.8766 270.183 24.3353V24.9943H272.171V19.8402C272.148 18.8518 271.84 18.0987 271.225 17.5809ZM267.625 21.9348C267.862 21.7701 268.169 21.6995 268.595 21.6995C269.092 21.6995 269.613 21.7936 270.134 21.9819V22.7585C269.684 23.1586 269.092 23.3704 268.382 23.3704C268.027 23.3704 267.767 23.2998 267.577 23.1351C267.388 22.9939 267.293 22.8056 267.293 22.5467C267.293 22.2878 267.388 22.076 267.625 21.9348Z" fill="white"/>
<path fill-rule="evenodd" clip-rule="evenodd" d="M283.153 25.1587C279.91 25.1587 277.259 22.5228 277.259 19.2986C277.259 16.0744 279.91 13.4385 283.153 13.4385C286.396 13.4385 289.048 16.0744 289.048 19.2986C289.048 22.5228 286.42 25.1587 283.153 25.1587ZM283.152 15.4859C281.045 15.4859 279.341 17.1804 279.341 19.275C279.341 21.3696 281.045 23.0641 283.152 23.0641C285.259 23.0641 286.963 21.3696 286.963 19.275C286.963 17.1804 285.259 15.4859 283.152 15.4859Z" fill="white"/>
<path d="M231.652 9.00005H231.156L232.412 3.10005H233.912C234.315 3.10005 234.637 3.16672 234.88 3.30005C235.123 3.43338 235.299 3.61205 235.408 3.83605C235.517 4.06005 235.572 4.30672 235.572 4.57605C235.572 4.92272 235.513 5.23605 235.396 5.51605C235.281 5.79338 235.117 6.03338 234.904 6.23605C234.693 6.43872 234.441 6.59338 234.148 6.70005C233.855 6.80672 233.532 6.86005 233.18 6.86005H232.108L231.652 9.00005ZM232.148 6.67605L231.98 6.42405H233.172C233.559 6.42405 233.895 6.34672 234.18 6.19205C234.465 6.03472 234.687 5.81738 234.844 5.54005C235.001 5.26272 235.08 4.94005 235.08 4.57205C235.08 4.36138 235.037 4.18005 234.952 4.02805C234.867 3.87338 234.729 3.75338 234.54 3.66805C234.351 3.58005 234.1 3.53605 233.788 3.53605H232.592L232.872 3.26005L232.148 6.67605ZM237.474 9.07605C237.111 9.07605 236.799 9.00405 236.538 8.86005C236.276 8.71338 236.075 8.51072 235.934 8.25205C235.792 7.99338 235.722 7.69205 235.722 7.34805C235.722 6.97472 235.786 6.62672 235.914 6.30405C236.044 5.98138 236.224 5.70005 236.454 5.46005C236.686 5.21738 236.956 5.02938 237.266 4.89605C237.578 4.76005 237.915 4.69205 238.278 4.69205C238.643 4.69205 238.955 4.76672 239.214 4.91605C239.475 5.06538 239.675 5.26938 239.814 5.52805C239.952 5.78405 240.022 6.07472 240.022 6.40005C240.022 6.79472 239.955 7.15605 239.822 7.48405C239.691 7.80938 239.51 8.09072 239.278 8.32805C239.046 8.56538 238.775 8.74938 238.466 8.88005C238.159 9.01072 237.828 9.07605 237.474 9.07605ZM237.51 8.63205C237.886 8.63205 238.224 8.54138 238.526 8.36005C238.83 8.17605 239.071 7.92138 239.25 7.59605C239.428 7.26805 239.518 6.88672 239.518 6.45205C239.518 6.18538 239.468 5.95472 239.37 5.76005C239.271 5.56272 239.127 5.40938 238.938 5.30005C238.751 5.19072 238.52 5.13605 238.246 5.13605C237.952 5.13605 237.682 5.19205 237.434 5.30405C237.188 5.41338 236.975 5.56672 236.794 5.76405C236.615 5.96138 236.475 6.19072 236.374 6.45205C236.275 6.71338 236.226 6.99605 236.226 7.30005C236.226 7.71072 236.336 8.03605 236.558 8.27605C236.782 8.51338 237.099 8.63205 237.51 8.63205ZM243.959 9.00005L243.627 4.75205H244.055L244.379 8.76005H244.287L245.967 4.75205H246.499L244.639 9.00005H243.959ZM241.159 9.00005L241.095 4.75205H241.595L241.579 8.76005H241.483L243.503 4.75205H243.967L241.843 9.00005H241.159ZM246.97 7.08405L247.066 6.64005H250.506L250.406 6.78005C250.42 6.72405 250.432 6.65872 250.442 6.58405C250.453 6.50672 250.458 6.42272 250.458 6.33205C250.458 6.11072 250.413 5.91072 250.322 5.73205C250.234 5.55072 250.1 5.40672 249.918 5.30005C249.737 5.19338 249.506 5.14005 249.226 5.14005C248.925 5.14005 248.649 5.19605 248.398 5.30805C248.15 5.42005 247.934 5.57605 247.75 5.77605C247.569 5.97338 247.428 6.20405 247.326 6.46805C247.228 6.72938 247.178 7.01205 247.178 7.31605C247.178 7.57472 247.225 7.80272 247.318 8.00005C247.414 8.19738 247.56 8.35072 247.754 8.46005C247.949 8.56938 248.194 8.62405 248.49 8.62405C248.738 8.62405 248.958 8.59472 249.15 8.53605C249.345 8.47472 249.51 8.39472 249.646 8.29605C249.785 8.19738 249.896 8.09338 249.978 7.98405C250.064 7.87205 250.122 7.76672 250.154 7.66805H250.654C250.614 7.82538 250.534 7.98672 250.414 8.15205C250.297 8.31472 250.142 8.46672 249.95 8.60805C249.758 8.74938 249.533 8.86405 249.274 8.95205C249.018 9.03738 248.733 9.08005 248.418 9.08005C248.056 9.08005 247.745 9.00672 247.486 8.86005C247.23 8.71072 247.034 8.50538 246.898 8.24405C246.765 7.98005 246.698 7.67605 246.698 7.33205C246.698 6.96138 246.764 6.61738 246.894 6.30005C247.028 5.98005 247.212 5.70005 247.446 5.46005C247.684 5.21738 247.958 5.02938 248.27 4.89605C248.582 4.76005 248.917 4.69205 249.274 4.69205C249.632 4.69205 249.933 4.76672 250.178 4.91605C250.426 5.06272 250.614 5.26272 250.742 5.51605C250.87 5.76938 250.934 6.05472 250.934 6.37205C250.934 6.48405 250.924 6.60672 250.902 6.74005C250.884 6.87338 250.861 6.98805 250.834 7.08405H246.97ZM251.615 9.00005L252.515 4.75205H253.011L252.747 6.00405L252.559 5.94805C252.604 5.81472 252.673 5.67605 252.767 5.53205C252.86 5.38538 252.977 5.24805 253.119 5.12005C253.26 4.99205 253.424 4.88938 253.611 4.81205C253.8 4.73205 254.012 4.69205 254.247 4.69205C254.415 4.69205 254.549 4.70672 254.651 4.73605C254.755 4.76538 254.817 4.78805 254.839 4.80405L254.603 5.28405C254.579 5.26538 254.528 5.24138 254.451 5.21205C254.376 5.18272 254.261 5.16805 254.107 5.16805C253.883 5.16805 253.685 5.21205 253.515 5.30005C253.344 5.38538 253.199 5.49738 253.079 5.63605C252.959 5.77472 252.861 5.92272 252.787 6.08005C252.715 6.23738 252.664 6.38672 252.635 6.52805L252.107 9.00005H251.615ZM255.181 7.08405L255.277 6.64005H258.717L258.617 6.78005C258.631 6.72405 258.643 6.65872 258.653 6.58405C258.664 6.50672 258.669 6.42272 258.669 6.33205C258.669 6.11072 258.624 5.91072 258.533 5.73205C258.445 5.55072 258.311 5.40672 258.129 5.30005C257.948 5.19338 257.717 5.14005 257.437 5.14005C257.136 5.14005 256.86 5.19605 256.609 5.30805C256.361 5.42005 256.145 5.57605 255.961 5.77605C255.78 5.97338 255.639 6.20405 255.537 6.46805C255.439 6.72938 255.389 7.01205 255.389 7.31605C255.389 7.57472 255.436 7.80272 255.529 8.00005C255.625 8.19738 255.771 8.35072 255.965 8.46005C256.16 8.56938 256.405 8.62405 256.701 8.62405C256.949 8.62405 257.169 8.59472 257.361 8.53605C257.556 8.47472 257.721 8.39472 257.857 8.29605C257.996 8.19738 258.107 8.09338 258.189 7.98405C258.275 7.87205 258.333 7.76672 258.365 7.66805H258.865C258.825 7.82538 258.745 7.98672 258.625 8.15205C258.508 8.31472 258.353 8.46672 258.161 8.60805C257.969 8.74938 257.744 8.86405 257.485 8.95205C257.229 9.03738 256.944 9.08005 256.629 9.08005C256.267 9.08005 255.956 9.00672 255.697 8.86005C255.441 8.71072 255.245 8.50538 255.109 8.24405C254.976 7.98005 254.909 7.67605 254.909 7.33205C254.909 6.96138 254.975 6.61738 255.105 6.30005C255.239 5.98005 255.423 5.70005 255.657 5.46005C255.895 5.21738 256.169 5.02938 256.481 4.89605C256.793 4.76005 257.128 4.69205 257.485 4.69205C257.843 4.69205 258.144 4.76672 258.389 4.91605C258.637 5.06272 258.825 5.26272 258.953 5.51605C259.081 5.76938 259.145 6.05472 259.145 6.37205C259.145 6.48405 259.135 6.60672 259.113 6.74005C259.095 6.87338 259.072 6.98805 259.045 7.08405H255.181ZM261.526 9.07605C261.072 9.07605 260.714 8.93072 260.45 8.64005C260.186 8.34938 260.054 7.94138 260.054 7.41605C260.054 7.04805 260.108 6.70005 260.218 6.37205C260.33 6.04405 260.487 5.75472 260.69 5.50405C260.895 5.25072 261.14 5.05338 261.426 4.91205C261.711 4.76805 262.028 4.69605 262.378 4.69605C262.666 4.69605 262.922 4.75605 263.146 4.87605C263.372 4.99605 263.551 5.16138 263.682 5.37205C263.812 5.58272 263.878 5.82538 263.878 6.10005C263.878 6.17205 263.872 6.24805 263.862 6.32805C263.851 6.40538 263.839 6.46672 263.826 6.51205L263.486 6.52005C263.499 6.47472 263.508 6.42405 263.514 6.36805C263.522 6.30938 263.526 6.26005 263.526 6.22005C263.526 6.01738 263.475 5.83472 263.374 5.67205C263.275 5.50938 263.139 5.38138 262.966 5.28805C262.795 5.19472 262.6 5.14805 262.382 5.14805C262.091 5.14805 261.832 5.20805 261.606 5.32805C261.382 5.44538 261.192 5.60805 261.038 5.81605C260.883 6.02138 260.764 6.25872 260.682 6.52805C260.602 6.79472 260.562 7.07605 260.562 7.37205C260.562 7.76938 260.656 8.07472 260.846 8.28805C261.038 8.50138 261.308 8.60805 261.658 8.60805C261.922 8.60805 262.17 8.54672 262.402 8.42405C262.636 8.30138 262.836 8.13872 263.002 7.93605C263.17 7.73072 263.279 7.50405 263.33 7.25605L263.722 7.26405C263.65 7.60005 263.507 7.90538 263.294 8.18005C263.08 8.45472 262.819 8.67338 262.51 8.83605C262.203 8.99605 261.875 9.07605 261.526 9.07605ZM262.958 9.00005L264.286 2.74805H264.782L263.454 9.00005H262.958ZM268.755 9.07605C268.47 9.07605 268.214 9.01472 267.987 8.89205C267.76 8.76938 267.582 8.60138 267.451 8.38805C267.323 8.17205 267.259 7.92672 267.259 7.65205C267.259 7.57738 267.263 7.50538 267.271 7.43605C267.282 7.36672 267.294 7.30672 267.307 7.25605L267.643 7.24805C267.635 7.28005 267.627 7.32272 267.619 7.37605C267.614 7.42938 267.611 7.48138 267.611 7.53205C267.611 7.73472 267.66 7.91738 267.759 8.08005C267.86 8.24272 267.996 8.37205 268.167 8.46805C268.34 8.56138 268.536 8.60805 268.755 8.60805C269.043 8.60805 269.299 8.54938 269.523 8.43205C269.75 8.31205 269.94 8.14805 270.095 7.94005C270.252 7.73205 270.371 7.49472 270.451 7.22805C270.531 6.96138 270.571 6.68005 270.571 6.38405C270.571 5.97872 270.479 5.67072 270.295 5.46005C270.111 5.24938 269.843 5.14405 269.491 5.14405C269.243 5.14405 269 5.20405 268.763 5.32405C268.526 5.44405 268.32 5.60405 268.147 5.80405C267.974 6.00405 267.86 6.22538 267.807 6.46805L267.423 6.45605C267.495 6.12005 267.643 5.81872 267.867 5.55205C268.091 5.28538 268.356 5.07605 268.663 4.92405C268.972 4.76938 269.29 4.69205 269.615 4.69205C270.071 4.69205 270.428 4.83738 270.687 5.12805C270.948 5.41872 271.079 5.83072 271.079 6.36405C271.079 6.73205 271.023 7.08005 270.911 7.40805C270.802 7.73338 270.644 8.02138 270.439 8.27205C270.234 8.52272 269.988 8.72005 269.703 8.86405C269.418 9.00538 269.102 9.07605 268.755 9.07605ZM266.775 9.00005L268.107 2.74805H268.603L267.275 9.00005H266.775ZM271.22 10.776C271.121 10.776 271.031 10.7693 270.948 10.756C270.865 10.7453 270.816 10.736 270.8 10.728L270.892 10.284C270.921 10.3027 270.975 10.3173 271.052 10.328C271.127 10.3413 271.2 10.348 271.272 10.348C271.456 10.348 271.619 10.3027 271.76 10.212C271.904 10.1213 272.031 10.0067 272.14 9.86805C272.249 9.72938 272.344 9.58672 272.424 9.44005L272.66 9.01205L272.084 4.75205H272.588L273.072 8.55205H272.984L275.036 4.75205H275.568L272.976 9.42005C272.848 9.65205 272.707 9.87072 272.552 10.076C272.4 10.284 272.217 10.452 272.004 10.58C271.791 10.7107 271.529 10.776 271.22 10.776Z" fill="white"/>
<path d="M184.5 0V32" stroke="white" stroke-opacity="0.5"/>
</g>
<defs>
<clipPath id="clip0_2_7">
<rect width="322" height="32" fill="white"/>
</clipPath>
</defs>
</svg>
